<svg xmlns="http://www.w3.org/2000/svg" version="1.1" xmlns:xlink="http://www.w3.org/1999/xlink" xmlns:svgjs="http://svgjs.dev/svgjs" width="1000" height="1000" viewBox="0 0 1000 1000"><rect width="1000" height="1000" fill="#77a73f"></rect><g transform="matrix(0.7,0,0,0.7,150.37274015682465,246.80518218623484)"><svg viewBox="0 0 341 247" data-background-color="#77a73f" preserveAspectRatio="xMidYMid meet" height="724" width="1000" xmlns="http://www.w3.org/2000/svg" xmlns:xlink="http://www.w3.org/1999/xlink"><g id="tight-bounds" transform="matrix(1,0,0,1,-0.18157770496742387,-0.09999999999999432)"><svg viewBox="0 0 341.3631540920019 247.2" height="247.2" width="341.3631540920019"><g><svg viewBox="0 0 395.52 286.4179769491144" height="247.2" width="341.3631540920019"><g transform="matrix(1,0,0,1,0,209.49991741427476)"><svg viewBox="0 0 395.52 76.91805953483961" height="76.91805953483961" width="395.52"><g><svg viewBox="0 0 395.52 76.91805953483961" height="76.91805953483961" width="395.52"><g><svg viewBox="0 0 395.52 45.92630649824988" height="45.92630649824988" width="395.52"><g transform="matrix(1,0,0,1,0,0)"><svg width="395.52" viewBox="-0.9500000476837158 -37.599998474121094 328.5299987792969 38.14999771118164" height="45.92630649824988" data-palette-color="#95dd44"><path d="M1.95-3.85L13.1-37.3 22.1-37.3 33.3-3.8 36.05-3.3 36.05 0 20.3 0 20.3-3.3 23.85-3.8 22.15-9.8 10.2-9.8 8.5-3.75 12.4-3.3 12.4 0-0.9 0-0.95-3.3 1.95-3.85ZM21.1-13.65L16.8-28.6 16.05-32.1 15.25-28.55 11.2-13.65 21.1-13.65ZM39.55-3.8L43.2-32.95 37.9-33.65 37.9-37.15 54.9-37.15 60.2-16.25 61.4-10.7 62.4-16.25 67.65-37.15 84.55-37.15 84.55-33.65 79.1-32.95 83.1-3.85 86.95-3.3 86.95 0 70.1 0 70.1-3.3 74.35-3.85 72.25-25.4 71.35-34.2 69.6-26.2 63.05-1.45 56.5-1.45 49.5-25.5 47.2-34.25 46.6-25.4 44.75-3.85 49.85-3.3 49.85 0 35.4 0 35.4-3.3 39.55-3.8ZM89-3.85L100.15-37.3 109.15-37.3 120.35-3.8 123.1-3.3 123.1 0 107.35 0 107.35-3.3 110.9-3.8 109.2-9.8 97.25-9.8 95.55-3.75 99.45-3.3 99.45 0 86.15 0 86.1-3.3 89-3.85ZM108.15-13.65L103.85-28.6 103.1-32.1 102.3-28.55 98.25-13.65 108.15-13.65ZM141.09-30.7L144.09-34.1 132.19-33.35 129.39-26.5 125.09-27.1 126.34-37.25 152.34-37.25 153.59-34.3 136.04-6.6 132.54-3.35 146.79-4.4 149.69-12.1 153.99-11.2 152.89 0 124.79 0 123.14-2.9 141.09-30.7ZM172.99 0.55Q164.59 0.55 160.54-4.53 156.49-9.6 156.49-18.5L156.49-18.5Q156.49-24.25 158.62-28.58 160.74-32.9 164.59-35.25 168.44-37.6 173.59-37.6L173.59-37.6Q182.19-37.6 186.27-32.83 190.34-28.05 190.34-19.2L190.34-19.2Q190.34-13.35 188.19-8.88 186.04-4.4 182.12-1.93 178.19 0.55 172.99 0.55L172.99 0.55ZM173.44-34.3Q169.84-34.3 167.87-30.35 165.89-26.4 165.89-18.55L165.89-18.55Q165.89-10.55 167.84-6.68 169.79-2.8 173.39-2.8L173.39-2.8Q176.94-2.8 178.92-7.03 180.89-11.25 180.89-19.15L180.89-19.15Q180.89-27.15 178.99-30.73 177.09-34.3 173.44-34.3L173.44-34.3ZM197.34-3.85L197.34-33 193.44-33.65 193.44-37.15 205.99-37.15 219.79-15.85 222.59-9.85 222.59-33 218.34-33.65 218.34-37.15 231.14-37.15 231.14-33.65 227.34-33 227.34 0 219.99 0 205.34-22.85 202.04-29.45 202.04-3.85 207.34-3.3 207.34 0 193.44 0 193.44-3.3 197.34-3.85ZM238.04-3.85L238.04-32.95 233.94-33.65 233.94-37.15 250.79-37.15 250.79-33.65 246.59-32.95 246.59-3.8 250.79-3.25 250.79 0 233.99 0 233.99-3.3 238.04-3.85ZM254.73-3.85L265.88-37.3 274.88-37.3 286.08-3.8 288.83-3.3 288.83 0 273.08 0 273.08-3.3 276.63-3.8 274.93-9.8 262.98-9.8 261.28-3.75 265.18-3.3 265.18 0 251.88 0 251.83-3.3 254.73-3.85ZM273.88-13.65L269.58-28.6 268.83-32.1 268.03-28.55 263.98-13.65 273.88-13.65ZM293.78-3.85L293.78-33 289.88-33.65 289.88-37.15 302.43-37.15 316.23-15.85 319.03-9.85 319.03-33 314.78-33.65 314.78-37.15 327.58-37.15 327.58-33.65 323.78-33 323.78 0 316.43 0 301.78-22.85 298.48-29.45 298.48-3.85 303.78-3.3 303.78 0 289.88 0 289.88-3.3 293.78-3.85Z" opacity="1" transform="matrix(1,0,0,1,0,0)" fill="#95dd44" class="undefined-text-0" data-fill-palette-color="primary" id="text-0"></path></svg></g></svg></g><g transform="matrix(1,0,0,1,0,56.768405231130714)"><svg viewBox="0 0 395.52 20.14965430370889" height="20.14965430370889" width="395.52"><g transform="matrix(1,0,0,1,0,0)"><svg width="395.52" viewBox="7.079999923706055 -35.060001373291016 697.7000122070312 35.55000305175781" height="20.14965430370889" data-palette-color="#96cb6a"><path d="M7.08 0L7.08-34.69 18.53-34.69Q19.34-34.69 19.86-34.68 20.39-34.67 21.39-34.58 22.39-34.5 23.1-34.34 23.8-34.18 24.77-33.85 25.73-33.52 26.42-33.08 27.1-32.64 27.84-31.92 28.59-31.2 29.04-30.32 29.49-29.44 29.79-28.2 30.08-26.95 30.08-25.46L30.08-25.46Q30.08-23.32 29.59-21.61 29.1-19.9 28.33-18.75 27.56-17.6 26.34-16.77 25.12-15.94 23.93-15.49 22.73-15.04 21.11-14.78 19.48-14.53 18.2-14.45 16.92-14.38 15.23-14.38L15.23-14.38Q13.57-14.38 11.23-14.55L11.23-14.55 11.23 0 7.08 0ZM11.23-31.03L11.23-18.21Q13.57-18.02 15.67-18.02L15.67-18.02Q16.87-18.02 17.68-18.04 18.48-18.07 19.65-18.21 20.83-18.36 21.61-18.62 22.39-18.87 23.27-19.38 24.15-19.9 24.67-20.59 25.2-21.29 25.54-22.35 25.88-23.41 25.88-24.78L25.88-24.78Q25.88-26.2 25.51-27.28 25.15-28.37 24.45-29.03 23.75-29.69 22.99-30.11 22.22-30.54 21.13-30.73 20.04-30.91 19.23-30.97 18.41-31.03 17.29-31.03L17.29-31.03 11.23-31.03ZM62.67-25.17L62.67-25.17Q62.67-23.44 62.25-21.88 61.84-20.31 60.96-18.9 60.08-17.48 58.53-16.44 56.98-15.41 54.9-14.92L54.9-14.92 64.69 0 60.06 0 50.66-14.45 43.94-14.45 43.94 0 39.77 0 39.77-34.69 52.51-34.69Q53.39-34.69 54.1-34.64 54.81-34.59 55.92-34.39 57.03-34.18 57.88-33.83 58.74-33.47 59.68-32.75 60.62-32.03 61.24-31.05 61.86-30.08 62.27-28.56 62.67-27.05 62.67-25.17ZM43.94-31.05L43.94-18.12 49.92-18.12Q51.17-18.12 52.12-18.2 53.07-18.29 54.36-18.66 55.64-19.04 56.48-19.71 57.32-20.39 57.92-21.67 58.52-22.95 58.52-24.71L58.52-24.71Q58.52-25.95 58.2-26.95 57.88-27.95 57.39-28.6 56.91-29.25 56.2-29.72 55.49-30.2 54.83-30.44 54.17-30.69 53.37-30.83 52.56-30.98 52.04-31.02 51.51-31.05 50.93-31.05L50.93-31.05 43.94-31.05ZM89.37-35.06L89.37-35.06Q92.82-35.06 95.81-33.85 98.8-32.64 100.98-30.44 103.17-28.25 104.41-24.96 105.66-21.68 105.66-17.75L105.66-17.75Q105.66-12.43 103.55-8.29 101.44-4.15 97.69-1.89 93.94 0.37 89.2 0.37L89.2 0.37Q86.08 0.37 83.22-0.74 80.37-1.86 78.07-3.98 75.78-6.1 74.41-9.53 73.04-12.96 73.04-17.26L73.04-17.26Q73.04-21.29 74.29-24.63 75.53-27.98 77.7-30.26 79.88-32.54 82.88-33.8 85.88-35.06 89.37-35.06ZM89.16-31.42L89.16-31.42Q86.93-31.42 84.88-30.59 82.83-29.76 81.11-28.16 79.39-26.56 78.35-23.86 77.31-21.17 77.31-17.77L77.31-17.77Q77.31-14.53 78.27-11.78 79.22-9.03 80.85-7.18 82.49-5.32 84.72-4.3 86.96-3.27 89.52-3.27L89.52-3.27Q91.25-3.27 92.93-3.78 94.6-4.3 96.14-5.41 97.68-6.52 98.84-8.13 100-9.74 100.69-12.11 101.39-14.48 101.39-17.31L101.39-17.31Q101.39-20.19 100.65-22.58 99.92-24.98 98.71-26.59 97.5-28.2 95.91-29.31 94.31-30.42 92.61-30.92 90.91-31.42 89.16-31.42ZM111.03-31.03L111.03-34.69 138.37-34.69 138.37-31.03 126.77-31.03 126.77 0 122.62 0 122.62-31.03 111.03-31.03ZM165.91 0L145.57 0 145.57-34.69 165.91-34.69 165.91-31.03 149.72-31.03 149.72-19.7 164.57-19.7 164.57-16.04 149.72-16.04 149.72-3.66 165.91-3.66 165.91 0ZM193.88-34.94L193.88-34.94Q198.62-34.94 203.31-33.08L203.31-33.08 202.04-29.64Q197.3-31.27 193.76-31.27L193.76-31.27Q190.83-31.27 188.33-30.11 185.83-28.96 184.18-27.01 182.53-25.07 181.6-22.57 180.68-20.07 180.68-17.33L180.68-17.33Q180.68-14.5 181.66-11.95 182.65-9.4 184.44-7.48 186.22-5.57 188.87-4.44 191.52-3.32 194.67-3.32L194.67-3.32Q198.43-3.32 202.5-4.79L202.5-4.79 203.77-1.71Q198.67 0.49 193.62 0.49L193.62 0.49Q190.49 0.49 187.76-0.42 185.02-1.32 182.98-2.94 180.94-4.57 179.48-6.79 178.01-9.01 177.27-11.68 176.53-14.36 176.53-17.31L176.53-17.31Q176.53-22.31 178.61-26.29 180.7-30.27 184.68-32.6 188.66-34.94 193.88-34.94ZM207.31-31.03L207.31-34.69 234.65-34.69 234.65-31.03 223.06-31.03 223.06 0 218.91 0 218.91-31.03 207.31-31.03ZM242.59 0L242.59-34.69 246.74-34.69 246.74 0 242.59 0ZM259.67 0L259.67-34.69 264.92-34.69 283.82-5.66 283.82-34.69 287.97-34.69 287.97 0 282.72 0 263.82-29.08 263.82 0 259.67 0ZM315.53-34.96L315.53-34.96Q321.39-34.96 326.69-32.01L326.69-32.01 325.05-28.91Q323.2-29.88 320.73-30.59 318.26-31.3 315.75-31.3L315.75-31.3Q313.19-31.3 310.81-30.35 308.42-29.39 306.57-27.67 304.71-25.95 303.6-23.33 302.49-20.7 302.49-17.58L302.49-17.58Q302.49-13.45 304.32-10.16 306.15-6.86 309.38-5.03 312.6-3.2 316.58-3.2L316.58-3.2Q321.29-3.2 324.25-6.03L324.25-6.03 324.25-14.89 314.38-14.89 314.38-18.31 328.27-18.31 328.27-4.69Q327.61-3.93 326.75-3.22 325.88-2.51 324.33-1.59 322.78-0.66 320.51-0.09 318.24 0.49 315.6 0.49L315.6 0.49Q312.14 0.49 309.22-0.55 306.3-1.59 304.32-3.32 302.35-5.05 300.98-7.36 299.61-9.67 298.98-12.18 298.34-14.7 298.34-17.31L298.34-17.31Q298.34-20.04 299.04-22.62 299.73-25.2 301.17-27.44 302.61-29.69 304.63-31.36 306.64-33.03 309.45-34 312.26-34.96 315.53-34.96ZM367.18-35.06L367.18-35.06Q370.63-35.06 373.62-33.85 376.61-32.64 378.79-30.44 380.98-28.25 382.22-24.96 383.47-21.68 383.47-17.75L383.47-17.75Q383.47-12.43 381.36-8.29 379.24-4.15 375.5-1.89 371.75 0.37 367.01 0.37L367.01 0.37Q363.89 0.37 361.03-0.74 358.18-1.86 355.88-3.98 353.59-6.1 352.22-9.53 350.85-12.96 350.85-17.26L350.85-17.26Q350.85-21.29 352.1-24.63 353.34-27.98 355.51-30.26 357.69-32.54 360.69-33.8 363.69-35.06 367.18-35.06ZM366.96-31.42L366.96-31.42Q364.74-31.42 362.69-30.59 360.64-29.76 358.92-28.16 357.2-26.56 356.16-23.86 355.12-21.17 355.12-17.77L355.12-17.77Q355.12-14.53 356.08-11.78 357.03-9.03 358.66-7.18 360.3-5.32 362.53-4.3 364.77-3.27 367.33-3.27L367.33-3.27Q369.06-3.27 370.74-3.78 372.41-4.3 373.95-5.41 375.49-6.52 376.64-8.13 377.8-9.74 378.5-12.11 379.2-14.48 379.2-17.31L379.2-17.31Q379.2-20.19 378.46-22.58 377.73-24.98 376.52-26.59 375.31-28.2 373.72-29.31 372.12-30.42 370.42-30.92 368.72-31.42 366.96-31.42ZM393.84-11.89L393.84-34.69 397.99-34.69 397.99-12.21Q397.99-10.13 398.35-8.64 398.7-7.15 399.85-5.86L399.85-5.86Q402.29-3.1 407.05-3.1L407.05-3.1Q410.49-3.1 412.8-4.6 415.11-6.1 415.79-8.84L415.79-8.84Q416.11-10.13 416.11-12.21L416.11-12.21 416.11-34.69 420.21-34.69Q420.21-26.86 420.22-21.88 420.23-16.89 420.23-15.49 420.23-14.09 420.25-13.24 420.26-12.4 420.26-11.84L420.26-11.84Q420.26-10.72 420.21-9.88 420.16-9.03 419.88-7.67 419.6-6.3 419.11-5.29 418.62-4.27 417.63-3.13 416.64-1.98 415.29-1.23 413.93-0.49 411.82 0 409.71 0.49 407.05 0.49L407.05 0.49Q404.19 0.49 401.92-0.11 399.65-0.71 398.36-1.54 397.06-2.37 396.12-3.54 395.18-4.71 394.83-5.55 394.48-6.4 394.26-7.32L394.26-7.32Q393.84-8.94 393.84-11.89L393.84-11.89ZM455.36-25.17L455.36-25.17Q455.36-23.44 454.95-21.88 454.53-20.31 453.65-18.9 452.78-17.48 451.22-16.44 449.67-15.41 447.6-14.92L447.6-14.92 457.39 0 452.75 0 443.35-14.45 436.64-14.45 436.64 0 432.46 0 432.46-34.69 445.21-34.69Q446.09-34.69 446.79-34.64 447.5-34.59 448.61-34.39 449.72-34.18 450.58-33.83 451.43-33.47 452.37-32.75 453.31-32.03 453.93-31.05 454.56-30.08 454.96-28.56 455.36-27.05 455.36-25.17ZM436.64-31.05L436.64-18.12 442.62-18.12Q443.86-18.12 444.82-18.2 445.77-18.29 447.05-18.66 448.33-19.04 449.17-19.71 450.02-20.39 450.61-21.67 451.21-22.95 451.21-24.71L451.21-24.71Q451.21-25.95 450.9-26.95 450.58-27.95 450.09-28.6 449.6-29.25 448.89-29.72 448.19-30.2 447.53-30.44 446.87-30.69 446.06-30.83 445.26-30.98 444.73-31.02 444.21-31.05 443.62-31.05L443.62-31.05 436.64-31.05ZM501.33-31.03L485.39-31.03 485.39-19.7 499.86-19.7 499.86-16.04 485.39-16.04 485.39 0 481.24 0 481.24-34.69 501.33-34.69 501.33-31.03ZM526.21-35.06L526.21-35.06Q529.65-35.06 532.64-33.85 535.63-32.64 537.81-30.44 540-28.25 541.24-24.96 542.49-21.68 542.49-17.75L542.49-17.75Q542.49-12.43 540.38-8.29 538.27-4.15 534.52-1.89 530.77 0.37 526.03 0.37L526.03 0.37Q522.91 0.37 520.05-0.74 517.2-1.86 514.9-3.98 512.61-6.1 511.24-9.53 509.87-12.96 509.87-17.26L509.87-17.26Q509.87-21.29 511.12-24.63 512.36-27.98 514.54-30.26 516.71-32.54 519.71-33.8 522.71-35.06 526.21-35.06ZM525.99-31.42L525.99-31.42Q523.76-31.42 521.71-30.59 519.66-29.76 517.94-28.16 516.22-26.56 515.18-23.86 514.14-21.17 514.14-17.77L514.14-17.77Q514.14-14.53 515.1-11.78 516.05-9.03 517.68-7.18 519.32-5.32 521.55-4.3 523.79-3.27 526.35-3.27L526.35-3.27Q528.09-3.27 529.76-3.78 531.43-4.3 532.97-5.41 534.51-6.52 535.67-8.13 536.83-9.74 537.52-12.11 538.22-14.48 538.22-17.31L538.22-17.31Q538.22-20.19 537.48-22.58 536.75-24.98 535.54-26.59 534.34-28.2 532.74-29.31 531.14-30.42 529.44-30.92 527.74-31.42 525.99-31.42ZM575.76-25.17L575.76-25.17Q575.76-23.44 575.35-21.88 574.93-20.31 574.05-18.9 573.18-17.48 571.62-16.44 570.07-15.41 568-14.92L568-14.92 577.79 0 573.15 0 563.75-14.45 557.04-14.45 557.04 0 552.86 0 552.86-34.69 565.61-34.69Q566.49-34.69 567.19-34.64 567.9-34.59 569.01-34.39 570.12-34.18 570.98-33.83 571.83-33.47 572.77-32.75 573.71-32.03 574.33-31.05 574.96-30.08 575.36-28.56 575.76-27.05 575.76-25.17ZM557.04-31.05L557.04-18.12 563.02-18.12Q564.26-18.12 565.22-18.2 566.17-18.29 567.45-18.66 568.73-19.04 569.57-19.71 570.42-20.39 571.01-21.67 571.61-22.95 571.61-24.71L571.61-24.71Q571.61-25.95 571.3-26.95 570.98-27.95 570.49-28.6 570-29.25 569.29-29.72 568.59-30.2 567.93-30.44 567.27-30.69 566.46-30.83 565.66-30.98 565.13-31.02 564.61-31.05 564.02-31.05L564.02-31.05 557.04-31.05ZM608.3 0L587.97 0 587.97-34.69 608.3-34.69 608.3-31.03 592.12-31.03 592.12-19.7 606.96-19.7 606.96-16.04 592.12-16.04 592.12-3.66 608.3-3.66 608.3 0ZM632.25-35.01L632.25-35.01Q636.26-35.01 640.87-33.62L640.87-33.62 639.53-29.83Q635.13-31.1 631.91-31.1L631.91-31.1Q628.3-31.1 625.79-29.58 623.29-28.05 623.29-25.63L623.29-25.63Q623.29-24.29 624.1-23.24 624.9-22.19 626.22-21.53 627.54-20.87 629.22-20.23 630.91-19.58 632.66-19.04 634.4-18.51 636.09-17.68 637.77-16.85 639.09-15.86 640.41-14.87 641.21-13.28 642.02-11.69 642.02-9.69L642.02-9.69Q642.02-8.3 641.58-6.92 641.14-5.54 640.11-4.19 639.09-2.83 637.57-1.81 636.06-0.78 633.75-0.15 631.45 0.49 628.61 0.49 625.78 0.49 623.4-0.1 621.02-0.68 618.07-1.86L618.07-1.86 619.48-5.88Q625.59-3.61 629.13-3.61L629.13-3.61Q632.84-3.61 635.17-5.1 637.5-6.59 637.5-9.08L637.5-9.08Q637.5-10.74 636.46-11.95 635.43-13.16 633.78-13.9 632.13-14.65 630.13-15.3 628.13-15.94 626.14-16.69 624.15-17.43 622.5-18.41 620.85-19.38 619.81-21.04 618.78-22.71 618.78-24.95L618.78-24.95Q618.78-26.95 619.74-28.78 620.7-30.62 622.41-31.99 624.12-33.37 626.69-34.19 629.25-35.01 632.25-35.01ZM647.51-31.03L647.51-34.69 674.85-34.69 674.85-31.03 663.26-31.03 663.26 0 659.11 0 659.11-31.03 647.51-31.03ZM695.02-35.01L695.02-35.01Q699.02-35.01 703.63-33.62L703.63-33.62 702.29-29.83Q697.9-31.1 694.67-31.1L694.67-31.1Q691.06-31.1 688.56-29.58 686.06-28.05 686.06-25.63L686.06-25.63Q686.06-24.29 686.86-23.24 687.67-22.19 688.99-21.53 690.3-20.87 691.99-20.23 693.67-19.58 695.42-19.04 697.16-18.51 698.85-17.68 700.53-16.85 701.85-15.86 703.17-14.87 703.98-13.28 704.78-11.69 704.78-9.69L704.78-9.69Q704.78-8.3 704.34-6.92 703.9-5.54 702.88-4.19 701.85-2.83 700.34-1.81 698.82-0.78 696.52-0.15 694.21 0.49 691.38 0.49 688.55 0.49 686.17-0.1 683.79-0.68 680.83-1.86L680.83-1.86 682.25-5.88Q688.35-3.61 691.89-3.61L691.89-3.61Q695.6-3.61 697.93-5.1 700.26-6.59 700.26-9.08L700.26-9.08Q700.26-10.74 699.23-11.95 698.19-13.16 696.54-13.9 694.89-14.65 692.89-15.3 690.89-15.94 688.9-16.69 686.91-17.43 685.26-18.41 683.61-19.38 682.58-21.04 681.54-22.71 681.54-24.95L681.54-24.95Q681.54-26.95 682.5-28.78 683.47-30.62 685.18-31.99 686.89-33.37 689.45-34.19 692.01-35.01 695.02-35.01Z" opacity="1" transform="matrix(1,0,0,1,0,0)" fill="#96cb6a" class="undefined-text-1" data-fill-palette-color="secondary" id="text-1"></path></svg></g></svg></g></svg></g></svg></g><g transform="matrix(1,0,0,1,103.85214002574345,0)"><svg viewBox="0 0 187.81571994851308 187.81571994851308" height="187.81571994851308" width="187.81571994851308"><g><svg></svg></g><g id="icon-0"><svg viewBox="0 0 187.81571994851308 187.81571994851308" height="187.81571994851308" width="187.81571994851308"><g><path d="M0 93.908c0-51.864 42.044-93.908 93.908-93.908 51.864 0 93.908 42.044 93.908 93.908 0 51.864-42.044 93.908-93.908 93.908-51.864 0-93.908-42.044-93.908-93.908zM93.908 183.674c49.576 0 89.766-40.19 89.766-89.766 0-49.576-40.19-89.766-89.766-89.766-49.576 0-89.766 40.19-89.766 89.766 0 49.576 40.19 89.766 89.766 89.766z" data-fill-palette-color="accent" fill="#96cb6a" stroke="transparent"></path><ellipse rx="92.96878137451397" ry="92.96878137451397" cx="93.90785997425654" cy="93.90785997425654" fill="#96cb6a" stroke="transparent" stroke-width="0" fill-opacity="1" data-fill-palette-color="accent"></ellipse></g><g transform="matrix(1,0,0,1,42.39671335831341,39.07554021614748)"><svg viewBox="0 0 103.02229323188625 109.66463951621812" height="109.66463951621812" width="103.02229323188625"><g><svg xmlns="http://www.w3.org/2000/svg" xmlns:xlink="http://www.w3.org/1999/xlink" version="1.1" x="0" y="0" viewBox="4.592825889587402 1.8375978469848633 91.03987121582031 96.90965270996094" enable-background="new 0 0 100 100" xml:space="preserve" height="109.66463951621812" width="103.02229323188625" class="icon-c-0" data-fill-palette-color="quaternary" id="c-0"><path fill-rule="evenodd" clip-rule="evenodd" d="M66.292 40.878c-0.795 3.884-2.572 6.693-4.045 9.604-1.042 2.058-0.432 3.16 1.157 4.18 3.689 2.369 7.408 4.7 11.121 7.034 1.476 0.926 2.77 1.95 2.914 3.892 0.178 2.387-1.341 3.413-3.26 4.016-1.563 0.49-2.641 1.297-1.912 2.996 0.844 1.961 2.331 0.899 3.54 0.378 1.275-0.554 2.473-1.282 3.707-1.936 1.199-0.639 2.504-0.813 2.981 0.675 0.434 1.358-1.046 1.376-1.895 1.739-1.851 0.787-4.11 0.763-5.615 2.674 2.406 1.259 4.703 0.306 6.937 0.439 0.949 0.056 2.393-0.273 2.468 1 0.093 1.553-1.461 1.338-2.484 1.321-1.492-0.024-2.982-0.244-4.472-0.378-0.471-0.042-1.034-0.303-1.271 0.358-0.2 0.559 0.192 0.932 0.563 1.271 1.077 0.979 2.462 1.255 3.794 1.662 0.621 0.19 1.623 0.117 1.468 1.093-0.151 0.937-1.114 1.197-1.89 1.024-1.054-0.237-2.163-0.581-3.038-1.183-5.85-4.025-12.608-5.226-19.382-6.459-1.88-0.344-4.535-0.093-5.074-2.324-0.546-2.265 1.943-3.201 3.492-4.361 1.831-1.373 3.786-2.585 5.622-3.953 1.51-1.124 1.285-1.689-0.531-2.481-7.498-3.27-15.076-2.924-22.761-1.005-0.675 0.168-1.376 0.334-2.062 0.322-4.32-0.076-4.797 0.173-3.161 4.977 1.379 4.047 3.265 7.921 4.696 11.954 1.209 3.414 0.697 4.32-2.52 5.913-2.795 1.382-5.826 2.06-8.833 2.714-5.231 1.139-9.232 4.081-12.622 8.046-0.583 0.683-1.13 1.404-1.781 2.017-0.828 0.775-1.944 0.904-2.695 0.132-0.677-0.695 0.082-1.521 0.611-2.07 0.953-0.985 2.019-1.86 3.635-3.323-3.025 0.134-5.218 0.261-7.414 0.305-0.624 0.012-1.581 0.258-1.679-0.734-0.096-0.965 0.667-1.443 1.531-1.468 1.992-0.059 3.986 0.005 5.98-0.015 0.67-0.007 1.557 0.14 1.702-0.787 0.165-1.041-0.677-1.355-1.502-1.456-1.583-0.19-3.19-0.209-4.756-0.485-0.981-0.17-2.035-0.66-1.715-1.981 0.277-1.146 1.247-1.171 2.179-0.907 1.913 0.544 3.804 1.163 5.718 1.704 1.358 0.385 2.514 0.556 1.692-1.572-0.246-0.642-1.083-1.639-0.211-2.119 0.991-0.549 1.771 0.492 1.972 1.305 0.938 3.776 3.051 3.164 5.688 1.851 2.676-1.337 5.35-2.646 7.916-4.196 1.78-1.078 2.177-2.321 1.562-4.233-0.801-2.486-1.963-4.783-3.186-7.07-1.452-2.719-3.066-5.362-3.833-8.409-1.051-4.18-0.462-5.32 3.81-6.343 3.772-0.901 7.576-1.685 11.383-2.433 4.118-0.81 4.54-1.388 3.216-5.257-1.873-5.464-1.965-10.789-0.012-16.368 1.57-4.484 1.785-4.308-2.84-5.776-6.636-2.106-12.401-5.471-15.078-12.522-0.784-2.063-2.654-2.719-4.792-3.011-1.531-0.21-4.434 0.183-4.113-1.753 0.4-2.424 2.544-0.137 3.91-0.056 0.947 0.056 1.925 0.239 2.407-0.622 0.435-0.778-0.327-1.473-0.825-2.075-0.938-1.126-2.331-2.058-1.619-3.853 0.19-0.483 0.591-0.822 1.173-0.585 1.694 0.69 1.733 2.272 1.983 3.74 0.128 0.756-0.032 1.946 0.958 1.934 1.495-0.017 0.587-1.361 0.784-2.104 0.151-0.575 0.199-1.18 0.343-1.758 0.202-0.81 0.572-1.727 1.544-1.429 1.244 0.38 0.328 1.297 0.185 1.975-0.144 0.681-0.426 1.329-0.573 2.009-0.59 2.75 0.149 3.577 2.928 3.801 1.317 0.105 3.712-0.912 3.708 1.031-0.003 2.107-2.4 0.929-3.707 1.017-1.812 0.122-2.231 0.727-1.123 2.109 4.257 5.306 9.991 7.739 16.623 8.3 1.702 0.144 2.241-1.202 2.441-2.5 0.224-1.468 0.222-2.987 0.178-4.479-0.095-3.262 1.034-6.078 3.084-8.517 2.305-2.738 4.967-5.296 8.868-4.406 4.291 0.98 6.971 4.079 8.349 8.205 0.807 2.416 0.655 4.972 0.272 7.422-0.482 3.08-0.404 6.174-0.597 9.255-0.145 2.307 0.102 4.528 1.901 6.376 1.197 1.229 1.441 3.021 1.902 4.655 1.424 5.04 7.095 7.934 12.071 6.135 2.085-0.753 3.214-2.277 3.196-4.555-0.002-0.712-0.007-1.46 0.788-1.77 0.482-0.188 0.978-0.032 1.351 0.383 0.688 0.763 0.007 1.221-0.352 1.794-0.505 0.805-0.714 1.794-0.044 2.497 0.653 0.69 1.458-0.078 2.194-0.241 1.495-0.336 3.346-2.809 4.297-0.736 0.751 1.636-2.136 1.892-3.497 2.67-0.844 0.48-2.597 0.227-2.253 1.785 0.266 1.197 1.683 1.195 2.785 1.272 0.397 0.029 0.802-0.012 1.194 0.044 0.727 0.105 1.851-0.161 1.688 1.073-0.107 0.807-1 1.015-1.697 0.744-4.794-1.854-9.626-0.129-14.435-0.156-5.51-0.034-9.724-1.855-11.91-7.22C67.252 41.937 66.936 41.681 66.292 40.878zM64.204 73.093c1.112 0.943 2.324 1.309 3.6 1.348 1.238 0.037 1.779-0.907 1.765-1.934-0.02-1.468-1.185-1.038-1.914-0.743C66.584 72.195 65.26 71.896 64.204 73.093z" fill="#111111" data-fill-palette-color="quaternary"></path></svg></g></svg></g></svg></g></svg></g><g></g></svg></g><defs></defs></svg><rect width="341.3631540920019" height="247.2" fill="none" stroke="none" visibility="hidden"></rect></g></svg></g></svg>